<svg width="17" height="18" viewBox="0 0 17 18" fill="none" xmlns="http://www.w3.org/2000/svg">
<path d="M9.43916 10.139L11.9404 7.63777C14.3523 5.22587 15.3051 3.14152 15.1562 0.640288C15.1265 0.312746 14.8585 0.0447575 14.5309 0.014981C12.0297 -0.133902 9.91558 0.818947 7.53346 3.23085L5.00246 5.7023H2.20346C2.0248 5.7023 1.84614 5.76185 1.72704 5.91073L0.357318 7.28045C0.119106 7.51866 0 7.81643 0 8.17375C0 8.50129 0.119106 8.82883 0.357318 9.06704L1.60793 10.3177C1.5186 10.3772 1.3995 10.4665 1.33994 10.5559C0.59553 11.2407 0.208436 13.5633 0.119106 14.2482C0.0893295 14.4566 0.148883 14.665 0.297765 14.8139C0.416871 14.933 0.59553 15.0223 0.77419 15.0223C0.803966 15.0223 0.833742 15.0223 0.863519 15.0223C1.54838 14.933 3.87095 14.5459 4.61536 13.8015C4.70469 13.7122 4.79402 13.6229 4.85357 13.5335L6.52106 15.201C6.64016 15.3201 6.81882 15.4094 6.99748 15.4094C7.17614 15.4094 7.32502 15.3499 7.47391 15.201L7.80145 14.8735C8.06944 14.6055 8.06944 14.1886 7.80145 13.9206C7.59301 13.7122 7.26547 13.6526 6.99748 13.8015L1.36972 8.14397L2.47145 7.04224H5.27044C5.4491 7.04224 5.62776 6.98269 5.74687 6.8338L8.42676 4.15392C10.7195 1.86113 12.387 1.35492 13.7865 1.32515C13.7568 2.72464 13.2506 4.39213 10.9578 6.68492L8.27787 9.36481C8.15877 9.48392 8.06944 9.66257 8.06944 9.84123V10.139C8.06944 10.4963 8.3672 10.8239 8.7543 10.8239C9.14139 10.8239 9.43916 10.4963 9.43916 10.139ZM3.69229 12.8487C3.48385 13.0571 2.56078 13.3549 1.60793 13.5335C1.78659 12.5807 2.08436 11.6874 2.29279 11.4492C2.38212 11.3598 2.50123 11.3003 2.62033 11.2407L3.90072 12.5211C3.84117 12.6402 3.78162 12.7593 3.69229 12.8487Z" fill="white"/>
<path d="M16.1389 14.1886C16.1389 12.1042 14.4416 10.3772 12.3275 10.3772C10.2134 10.3772 8.54587 12.0745 8.54587 14.1886C8.54587 16.3027 10.2431 18 12.3573 18C13.3399 18 14.2332 17.6129 14.918 17.0174C14.9478 16.9876 14.9776 16.9876 14.9776 16.9578C15.6922 16.2432 16.1389 15.2605 16.1389 14.1886ZM12.2679 11.7171L12.0595 12.3424C11.9702 12.6402 11.6426 12.8189 11.3449 12.7295L10.5111 12.5509C10.928 12.0447 11.5533 11.7469 12.2679 11.7171ZM9.91559 13.7717L11.0173 14.0397C11.1662 14.0695 11.3151 14.0993 11.464 14.0993C12.2977 14.0993 13.0421 13.5633 13.3101 12.7593L13.5483 12.0447C14.2927 12.4616 14.7989 13.2655 14.7989 14.1886C14.7989 14.6055 14.7096 14.9926 14.5309 15.3201C14.2927 15.1117 14.0247 14.9628 13.6972 14.9032C13.0719 14.7543 12.387 14.933 11.9106 15.3797L10.9578 16.2729C10.3027 15.8263 9.85604 15.0819 9.85604 14.2184C9.88581 14.0397 9.88581 13.8908 9.91559 13.7717ZM13.6079 16.3027C13.2803 16.4814 12.923 16.6005 12.5359 16.6303L12.8635 16.3325C13.0123 16.1836 13.2208 16.1538 13.3994 16.1836C13.459 16.2134 13.5483 16.2432 13.6079 16.3027Z" fill="white"/>
</svg>
